<svg width="55" height="55" viewBox="0 0 55 55" fill="none" xmlns="http://www.w3.org/2000/svg">
<g clip-path="url(#clip0_12_4)">
<path d="M40.8164 0.559815L27.1581 4.30997C26.2324 4.56413 25.6167 5.41129 25.6608 6.37015L26.6132 27.1142L25.5064 29.0588L24.9035 28.7157L22.0746 25.8276C21.7765 25.5233 21.3632 25.3802 20.9408 25.4349C20.5186 25.4896 20.1553 25.7333 19.9447 26.1035L18.1079 29.3307C17.8972 29.701 17.873 30.1376 18.0417 30.5287C18.2104 30.9199 18.5446 31.2021 18.9583 31.3029L22.8861 32.2605L23.4766 32.5966C22.2865 34.4697 20.7421 35.5899 16.2177 36.8322C13.3816 37.6109 11.501 39.7294 10.779 42.9588C10.1349 45.8396 10.4149 49.6221 11.5887 53.8972C11.6839 54.2439 12.0421 54.4477 12.3887 54.3525C12.7353 54.2574 12.9392 53.8992 12.844 53.5526C11.7263 49.4818 11.4516 45.9168 12.0494 43.2428C12.6683 40.4742 14.1867 38.7397 16.5623 38.0875C21.0656 36.851 23.0662 35.6728 24.6077 33.2404L25.141 33.544L27.97 36.4321C28.268 36.7364 28.6814 36.8795 29.1037 36.8248C29.1676 36.8166 29.2302 36.804 29.291 36.7873C29.6325 36.6935 29.9211 36.4705 30.1 36.1562L31.9368 32.929C32.1475 32.5588 32.1716 32.1222 32.0029 31.731C31.8342 31.3399 31.5002 31.0577 31.0863 30.9568L27.1585 29.9992L26.6376 29.7027L27.7444 27.7581L46.0664 17.9842C46.9134 17.5325 47.3273 16.5705 47.0732 15.6449L43.323 1.98646C43.0253 0.902061 41.9008 0.262072 40.8164 0.559815ZM24.0163 31.4061L24.7461 30.1239L26.0283 30.8537L25.2985 32.1359L24.0163 31.4061ZM19.237 30.0133C19.2284 29.9934 19.2356 29.9807 19.2391 29.9746L21.0759 26.7474C21.079 26.7421 21.0849 26.7316 21.1007 26.7273L21.1081 26.7258C21.1296 26.7231 21.1398 26.7335 21.1447 26.7384L23.6938 29.3409L22.8059 30.901L19.2666 30.0382C19.2598 30.0366 19.2456 30.0332 19.237 30.0133ZM30.8076 32.2465C30.8162 32.2664 30.809 32.279 30.8055 32.2851L28.9687 35.5124C28.9651 35.5185 28.9577 35.5314 28.9366 35.534C28.9151 35.5367 28.9048 35.5263 28.9 35.5213L26.3508 32.9189L27.2388 31.3587L30.778 32.2216C30.7849 32.2231 30.799 32.2266 30.8076 32.2465ZM37.3873 10.8158L42.1161 2.50737L45.6957 15.5446L37.3873 10.8158ZM45.3912 16.869L28.9504 25.6393L36.7434 11.9471L45.3912 16.869ZM36.256 10.1719L27.9476 5.44312L40.9848 1.86352L36.256 10.1719ZM26.9644 6.38128L35.6122 11.3032L27.8191 24.9954L26.9644 6.38128Z" fill="black"/>
</g>
<defs>
<clipPath id="clip0_12_4">
<rect width="44.3462" height="44.3462" fill="white" transform="translate(0.0195312 11.7614) rotate(-15.3533)"/>
</clipPath>
</defs>
</svg>
