<svg width="32" height="32" viewBox="0 0 32 32" fill="none" xmlns="http://www.w3.org/2000/svg">
<g clip-path="url(#clip0_5_221)">
<path d="M24.7554 18.8624C26.0387 18.8624 27.2931 19.2264 28.3601 19.9085C29.4271 20.5906 30.2588 21.5601 30.7498 22.6943C31.2409 23.8286 31.3694 25.0767 31.1191 26.2808C30.8687 27.4849 30.2508 28.591 29.3433 29.4591C28.4359 30.3272 27.2798 30.9184 26.0212 31.1579C24.7626 31.3975 23.458 31.2745 22.2724 30.8047C21.0869 30.3349 20.0735 29.5393 19.3606 28.5184C18.6476 27.4976 18.2671 26.2975 18.2671 25.0698C18.2659 24.2543 18.433 23.4466 18.7586 22.693C19.0843 21.9394 19.5622 21.2547 20.1649 20.678C20.7676 20.1014 21.4834 19.6442 22.2711 19.3326C23.0588 19.0211 23.903 18.8613 24.7554 18.8624Z" fill="#AA27F2" fill-opacity="0.2"/>
<path d="M20.976 12.0526C20.0774 11.4897 19.341 10.7196 18.8346 9.81331C18.3283 8.90698 18.0681 7.89343 18.0782 6.8658C18.0853 5.49056 18.5717 4.15688 19.4603 3.07586C20.3489 1.99485 21.589 1.22824 22.9843 0.897399C24.3795 0.566554 25.8503 0.690365 27.1637 1.24924C28.4772 1.80811 29.5583 2.77011 30.2359 3.98298C30.9135 5.19584 31.149 6.59028 30.905 7.94559C30.661 9.30089 29.9515 10.5396 28.8888 11.4657C27.8261 12.3918 26.4709 12.9524 25.0377 13.0587C23.6045 13.165 22.1752 12.8109 20.976 12.0526Z" fill="#AA27F2" fill-opacity="0.2"/>
<path d="M7.24394 10.6664C8.52721 10.6664 9.78166 11.0304 10.8487 11.7125C11.9157 12.3946 12.7473 13.3641 13.2384 14.4983C13.7295 15.6326 13.8579 16.8807 13.6076 18.0848C13.3572 19.2889 12.7393 20.395 11.8319 21.2631C10.9245 22.1312 9.76836 22.7224 8.50975 22.962C7.25114 23.2015 5.94655 23.0785 4.76097 22.6087C3.57538 22.1389 2.56205 21.3433 1.8491 20.3225C1.13616 19.3017 0.755622 18.1015 0.755622 16.8738C0.754356 16.0583 0.921317 15.2506 1.24694 14.4969C1.57256 13.7432 2.05043 13.0585 2.65318 12.4818C3.25593 11.9051 3.9717 11.448 4.75947 11.1364C5.54724 10.8249 6.39153 10.6652 7.24394 10.6664Z" fill="#AA27F2" fill-opacity="0.2"/>
<path d="M24.7552 32C23.3163 32.006 21.9079 31.6036 20.708 30.8437C19.5082 30.0839 18.5708 29.0007 18.0144 27.7311C17.458 26.4616 17.3076 25.0627 17.5822 23.7114C17.8568 22.3601 18.5441 21.117 19.5572 20.1394C20.5702 19.1618 21.8635 18.4935 23.2736 18.2191C24.6836 17.9447 26.147 18.0765 27.4788 18.5978C28.8106 19.1191 29.9508 20.0065 30.7554 21.1477C31.56 22.289 31.9928 23.633 31.999 25.0096C32.0072 25.9247 31.8259 26.8323 31.4656 27.68C31.1052 28.5278 30.573 29.2988 29.8995 29.9487C29.226 30.5986 28.4247 31.1145 27.5418 31.4666C26.6588 31.8186 25.7118 32 24.7552 32ZM24.7552 19.586C23.634 19.586 22.538 19.9041 21.6057 20.5001C20.6734 21.096 19.9468 21.943 19.5178 22.9341C19.0887 23.9251 18.9764 25.0156 19.1952 26.0676C19.4139 27.1197 19.9538 28.0861 20.7466 28.8446C21.5395 29.6031 22.5496 30.1196 23.6492 30.3289C24.7489 30.5382 25.8888 30.4308 26.9246 30.0203C27.9605 29.6098 28.8459 28.9146 29.4688 28.0227C30.0917 27.1308 30.4242 26.0822 30.4242 25.0096C30.4203 23.5723 29.8217 22.195 28.7594 21.1787C27.6972 20.1624 26.2575 19.5898 24.7552 19.586Z" fill="#AA27F2"/>
<path d="M7.24383 23.8041C5.81114 23.8041 4.41062 23.3976 3.21938 22.6361C2.02814 21.8746 1.09968 20.7922 0.551407 19.5259C0.00313864 18.2596 -0.140313 16.8661 0.139191 15.5218C0.418696 14.1775 1.1086 12.9426 2.12167 11.9734C3.13474 11.0042 4.42547 10.3442 5.83063 10.0768C7.2358 9.80936 8.69229 9.94661 10.0159 10.4711C11.3396 10.9957 12.4709 11.8839 13.2669 13.0236C14.0628 14.1633 14.4877 15.5032 14.4877 16.8738C14.4874 18.7118 13.7242 20.4744 12.3657 21.774C11.0073 23.0736 9.16495 23.8038 7.24383 23.8041ZM7.24383 11.3892C6.12262 11.3892 5.02658 11.7073 4.09432 12.3032C3.16207 12.8992 2.43546 13.7462 2.00639 14.7373C1.57732 15.7283 1.46505 16.8188 1.68379 17.8708C1.90253 18.9229 2.44245 19.8893 3.23527 20.6478C4.02809 21.4063 5.0382 21.9228 6.13787 22.1321C7.23755 22.3414 8.37739 22.234 9.41326 21.8235C10.4491 21.413 11.3345 20.7178 11.9574 19.8259C12.5803 18.934 12.9128 17.8854 12.9128 16.8128C12.9089 15.3755 12.3104 13.9982 11.2481 12.9819C10.1858 11.9656 8.74613 11.393 7.24383 11.3892Z" fill="#AA27F2"/>
<path d="M24.5664 13.8604C23.1359 13.8519 21.7374 13.4551 20.5335 12.716C19.4859 12.0577 18.6349 11.1506 18.0637 10.0833C17.4926 9.01594 17.2208 7.82505 17.2751 6.62712C17.3294 5.42918 17.7078 4.26524 18.3733 3.2492C19.0388 2.23316 19.9686 1.39981 21.0718 0.830718C22.1749 0.261622 23.4136 -0.0237306 24.6666 0.00258397C25.9197 0.0288985 27.1441 0.365978 28.2201 0.980838C29.2961 1.5957 30.1868 2.46728 30.805 3.51028C31.4233 4.55329 31.748 5.73199 31.7472 6.93104C31.7648 7.84068 31.5915 8.74445 31.2377 9.58891C30.8838 10.4334 30.3566 11.2014 29.6871 11.8475C29.0176 12.4936 28.2195 13.0047 27.3399 13.3506C26.4604 13.6965 25.5173 13.8693 24.5664 13.8604ZM24.5664 1.44643C23.3496 1.44809 22.1657 1.82377 21.1891 2.51806C20.2125 3.21236 19.4949 4.18851 19.1422 5.30258C18.7895 6.41665 18.8204 7.60966 19.2302 8.70569C19.64 9.80172 20.4071 10.7427 21.4184 11.39C22.3494 11.9861 23.4461 12.3011 24.5664 12.2944C26.0699 12.2944 27.5118 11.7229 28.5749 10.7058C29.6381 9.68872 30.2353 8.30922 30.2353 6.87081C30.2353 5.4324 29.6381 4.0529 28.5749 3.03578C27.5118 2.01867 26.0699 1.44727 24.5664 1.44727" fill="#AA27F2"/>
<path d="M18.0799 16.6329H13.7339C13.5168 16.6329 13.3085 16.5503 13.1549 16.4034C13.0013 16.2565 12.915 16.0572 12.915 15.8494C12.915 15.6416 13.0013 15.4424 13.1549 15.2954C13.3085 15.1485 13.5168 15.066 13.7339 15.066H17.7021L20.3473 11.5699C20.4052 11.4908 20.4789 11.4234 20.5641 11.3715C20.6492 11.3197 20.7442 11.2843 20.8437 11.2676C20.9431 11.2509 21.045 11.253 21.1435 11.274C21.2421 11.2949 21.3354 11.3342 21.4181 11.3896C21.5007 11.445 21.5712 11.5155 21.6254 11.597C21.6796 11.6785 21.7165 11.7694 21.734 11.8645C21.7515 11.9596 21.7493 12.0571 21.7274 12.1514C21.7055 12.2457 21.6644 12.3349 21.6065 12.414L18.7077 16.2112C18.662 16.3354 18.5766 16.4426 18.4636 16.5177C18.3506 16.5928 18.2157 16.6319 18.0781 16.6295" fill="#AA27F2"/>
<path d="M21.0389 20.3088C20.9164 20.3098 20.7955 20.283 20.6859 20.2307C20.5763 20.1783 20.4812 20.1019 20.4085 20.0076L17.5106 16.3317C17.4444 16.2525 17.3952 16.1617 17.3658 16.0643C17.3363 15.967 17.3272 15.8651 17.3389 15.7643C17.3507 15.6636 17.383 15.5661 17.4342 15.4773C17.4853 15.3886 17.5542 15.3103 17.6369 15.2471C17.7197 15.1838 17.8146 15.1367 17.9164 15.1085C18.0181 15.0804 18.1247 15.0716 18.2299 15.0829C18.3352 15.0941 18.4372 15.1251 18.5299 15.174C18.6227 15.2229 18.7045 15.2888 18.7706 15.368L21.6685 19.0405C21.789 19.2056 21.8426 19.4069 21.8194 19.607C21.7963 19.8071 21.6979 19.9923 21.5426 20.1281C21.4776 20.1916 21.3988 20.2408 21.3117 20.272C21.2247 20.3032 21.1316 20.3158 21.0389 20.3088Z" fill="#AA27F2"/>
</g>
<defs>
<clipPath id="clip0_5_221">
<rect width="32" height="32" fill="white"/>
</clipPath>
</defs>
</svg>
