<svg width="30" height="34" viewBox="0 0 30 34" fill="none" xmlns="http://www.w3.org/2000/svg">
<g clip-path="url(#clip0_5_231)">
<path d="M29.1864 8.93713V25.1273L22.7505 21.4359V12.6285L29.1864 8.93713Z" fill="#AA27F2" fill-opacity="0.2"/>
<path d="M29.1872 8.93713L22.7504 12.6285L15.0005 8.15948V0.906494L29.1872 8.93713Z" fill="#AA27F2" fill-opacity="0.2"/>
<path d="M29.1872 25.1273L15.0005 33.1579V25.904L22.7504 21.4359L29.1872 25.1273Z" fill="#AA27F2" fill-opacity="0.2"/>
<path d="M14.9998 25.9049V33.1579L0.813965 25.1309L7.3155 21.5012L14.9998 25.9049Z" fill="#AA27F2" fill-opacity="0.2"/>
<path d="M14.9998 0.906494V8.15948L7.24989 12.6285L0.813965 8.93713L14.9998 0.906494Z" fill="#AA27F2" fill-opacity="0.2"/>
<path d="M7.31543 21.5003L0.812988 25.13V8.93713L7.24983 12.6285V21.4359L7.31543 21.5003Z" fill="#AA27F2" fill-opacity="0.2"/>
<path d="M14.9996 34C14.8603 33.9865 14.7258 33.9421 14.6059 33.8702L0.418288 25.7752C0.290201 25.7074 0.184735 25.604 0.114815 25.4775C0.0448946 25.3509 0.0135569 25.2068 0.024642 25.0629V8.93715C0.0214215 8.79441 0.0561315 8.65335 0.125258 8.52826C0.194384 8.40318 0.295472 8.2985 0.418288 8.22483L14.6059 0.129764C14.7391 0.065847 14.885 0.0326538 15.0328 0.0326538C15.1807 0.0326538 15.3266 0.065847 15.4597 0.129764L29.5836 8.29016C29.7117 8.35789 29.8172 8.46135 29.8871 8.58788C29.957 8.7144 29.9883 8.85849 29.9773 9.00248V25.1282C29.9805 25.2709 29.9458 25.412 29.8766 25.5371C29.8075 25.6622 29.7064 25.7668 29.5836 25.8405L15.3896 33.8702C15.2698 33.9423 15.1353 33.9867 14.9959 34M1.66666 24.6101L14.9996 32.2523L28.3289 24.6745V9.45529L14.9996 1.81393L1.66666 9.45529V24.6101Z" fill="#AA27F2"/>
<path d="M14.9998 26.6817C14.8605 26.6681 14.7261 26.6238 14.6062 26.5519L6.85628 22.1482C6.72819 22.0805 6.62272 21.977 6.5528 21.8505C6.48288 21.724 6.45155 21.5799 6.46263 21.4359V12.633C6.45941 12.4903 6.49412 12.3493 6.56325 12.2242C6.63237 12.0991 6.73346 11.9944 6.85628 11.9207L14.6062 7.51703C14.7393 7.45312 14.8853 7.41992 15.0331 7.41992C15.1809 7.41992 15.3268 7.45312 15.46 7.51703L23.2108 11.9207C23.3388 11.9885 23.4442 12.092 23.5141 12.2185C23.584 12.345 23.6154 12.4891 23.6044 12.633V21.5058C23.6154 21.6497 23.584 21.7938 23.5141 21.9203C23.4442 22.0468 23.3388 22.1503 23.2108 22.2181L15.46 26.6172C15.3132 26.6657 15.1589 26.6875 15.0044 26.6817M8.04268 20.9831L15.0044 24.934L21.9624 20.9813V13.0822L14.9998 9.13133L8.03812 13.0822L8.04268 20.9831Z" fill="#AA27F2"/>
<path d="M14.9999 17.8761C14.7759 17.8731 14.5618 17.7836 14.4027 17.6266C14.2436 17.4695 14.1519 17.2571 14.147 17.034V0.842069C14.1542 0.621495 14.2473 0.412367 14.4065 0.258884C14.5658 0.105402 14.7787 0.0195923 15.0003 0.0195923C15.2219 0.0195923 15.4349 0.105402 15.5941 0.258884C15.7534 0.412367 15.8464 0.621495 15.8537 0.842069V17.0322C15.8573 17.1445 15.8376 17.2562 15.7959 17.3606C15.7541 17.4649 15.6912 17.5595 15.6111 17.6386C15.531 17.7176 15.4353 17.7793 15.3302 17.8199C15.225 17.8604 15.1126 17.879 14.9999 17.8743" fill="#AA27F2"/>
<path d="M29.1865 25.9049C29.0469 25.8915 28.9121 25.8472 28.7919 25.7751L14.6061 17.8098C14.4189 17.7044 14.2801 17.5308 14.2189 17.3255C14.1577 17.1201 14.1789 16.8992 14.2781 16.7091C14.3874 16.5234 14.5639 16.3864 14.7715 16.3261C14.979 16.2659 15.2019 16.287 15.3943 16.3852L15.5255 16.4496L29.581 24.4149C29.7684 24.5202 29.9074 24.6938 29.9686 24.8992C30.0298 25.1046 30.0085 25.3256 29.9091 25.5156C29.8276 25.632 29.7199 25.7278 29.5946 25.7953C29.4693 25.8627 29.3298 25.9 29.1874 25.904" fill="#AA27F2"/>
<path d="M0.81291 25.9049C0.669078 25.9084 0.52684 25.8743 0.400266 25.8062C0.273692 25.7381 0.167167 25.6383 0.0912263 25.5166C-0.00843827 25.3265 -0.0299331 25.1052 0.0312893 24.8996C0.0925117 24.694 0.231649 24.5202 0.419264 24.415L14.8028 16.3843C14.9952 16.2859 15.2181 16.2647 15.4257 16.325C15.6333 16.3852 15.8099 16.5224 15.9191 16.7083C16.0187 16.8982 16.0402 17.1193 15.9789 17.3248C15.9177 17.5302 15.7786 17.7039 15.591 17.809L15.4589 17.8734L1.20747 25.7752C1.14186 25.9049 0.944126 25.9049 0.81291 25.9049Z" fill="#AA27F2"/>
<path d="M22.7496 13.4071C22.5685 13.4161 22.3898 13.3629 22.2435 13.2563C22.0972 13.1497 21.9921 12.9962 21.946 12.8216C21.8998 12.647 21.9153 12.4619 21.99 12.2974C22.0647 12.1329 22.1939 11.9989 22.356 11.918L28.7263 8.28833C28.9187 8.19018 29.1415 8.16905 29.3491 8.22929C29.5566 8.28952 29.7332 8.42656 29.8425 8.61228C29.9419 8.80229 29.9632 9.02332 29.902 9.2287C29.8408 9.43408 29.7019 9.60773 29.5145 9.71298L23.2098 13.3426C23.064 13.3951 22.9089 13.417 22.7542 13.4071" fill="#AA27F2"/>
<path d="M7.24958 13.4053C7.1103 13.3917 6.97582 13.3474 6.85594 13.2755L0.485617 9.64587C0.298632 9.54094 0.159785 9.36791 0.0982679 9.16314C0.0367513 8.95838 0.0573585 8.73784 0.155757 8.54789C0.265091 8.36216 0.441639 8.22513 0.649195 8.16489C0.856751 8.10466 1.07958 8.12579 1.272 8.22394L7.64232 11.8536C7.80079 11.9437 7.92528 12.0831 7.99675 12.2503C8.06823 12.4175 8.08276 12.6034 8.03813 12.7796C7.99351 12.9559 7.89217 13.1127 7.74961 13.2262C7.60706 13.3396 7.43111 13.4035 7.24867 13.408" fill="#AA27F2"/>
<path d="M14.9999 34C14.7759 33.997 14.5618 33.9075 14.4027 33.7505C14.2436 33.5934 14.1519 33.381 14.147 33.1579V25.9049C14.1542 25.6844 14.2473 25.4752 14.4065 25.3217C14.5658 25.1683 14.7787 25.0825 15.0003 25.0825C15.2219 25.0825 15.4349 25.1683 15.5941 25.3217C15.7534 25.4752 15.8464 25.6844 15.8537 25.9049V33.2233C15.8346 33.4355 15.7363 33.633 15.5783 33.7768C15.4203 33.9205 15.2139 34.0002 14.9999 34Z" fill="#AA27F2"/>
</g>
<defs>
<clipPath id="clip0_5_231">
<rect width="30" height="34" fill="white"/>
</clipPath>
</defs>
</svg>
