<svg width="28" height="34" viewBox="0 0 28 34" fill="none" xmlns="http://www.w3.org/2000/svg">
<g clip-path="url(#clip0_5_211)">
<path d="M27.024 14.202C27.0352 14.6679 26.8819 15.1229 26.591 15.487C26.3006 15.8651 25.8964 16.14 25.438 16.271L3.67501 22.196C3.35525 22.2834 3.01971 22.2962 2.6942 22.2336C2.3687 22.1709 2.06192 22.0344 1.79745 21.8345C1.53299 21.6347 1.31789 21.3768 1.16872 21.0808C1.01955 20.7848 0.940284 20.4585 0.937012 20.127C0.93831 19.6563 1.09437 19.199 1.38114 18.8257C1.66792 18.4523 2.0695 18.1836 2.52401 18.061L24.292 12.138C24.6106 12.0585 24.9429 12.0512 25.2646 12.1168C25.5864 12.1824 25.8893 12.3192 26.1513 12.5171C26.4133 12.715 26.6276 12.9691 26.7787 13.2606C26.9297 13.5522 27.0135 13.8738 27.024 14.202Z" fill="#AA27F2" fill-opacity="0.35"/>
<path d="M27.024 22.696C27.0238 23.1673 26.8684 23.6255 26.5817 23.9997C26.295 24.3738 25.8931 24.6431 25.438 24.766L3.67501 30.689C3.35518 30.7761 3.01962 30.7888 2.69412 30.726C2.36863 30.6632 2.06187 30.5266 1.79744 30.3267C1.53301 30.1267 1.31795 29.8689 1.16878 29.5728C1.01962 29.2768 0.940329 28.9505 0.937012 28.619C0.947735 28.1502 1.10728 27.697 1.39256 27.3249C1.67785 26.9528 2.0741 26.681 2.52401 26.549L24.292 20.625C24.6119 20.5376 24.9476 20.5248 25.2732 20.5875C25.5988 20.6503 25.9057 20.7868 26.1703 20.9868C26.4348 21.1867 26.65 21.4447 26.7992 21.7408C26.9484 22.037 27.0277 22.3634 27.031 22.695" fill="#AA27F2" fill-opacity="0.35"/>
<path d="M24.7951 28.619C25.2318 28.6233 25.6575 28.7568 26.0185 29.0026C26.3795 29.2484 26.6597 29.5955 26.8238 30.0002C26.988 30.405 27.0287 30.8492 26.9408 31.2771C26.853 31.7049 26.6405 32.0971 26.3301 32.4044C26.0198 32.7117 25.6254 32.9203 25.1968 33.0039C24.7681 33.0876 24.3243 33.0425 23.9212 32.8743C23.5181 32.7062 23.1738 32.4226 22.9315 32.0592C22.6893 31.6957 22.5601 31.2687 22.5601 30.832C22.5614 30.5399 22.6202 30.2509 22.7333 29.9816C22.8463 29.7122 23.0114 29.4678 23.2189 29.2623C23.4265 29.0568 23.6725 28.8942 23.943 28.7838C24.2134 28.6734 24.503 28.6174 24.7951 28.619Z" fill="#AA27F2" fill-opacity="0.35"/>
<path d="M0 11.49C0.00578693 10.8264 0.226665 10.1825 0.629477 9.65514C1.03229 9.12773 1.5953 8.74521 2.234 8.56499L24 2.64199C24.3884 2.51799 24.7977 2.47335 25.2037 2.51073C25.6097 2.54811 26.004 2.66674 26.3632 2.85958C26.7224 3.05241 27.0392 3.3155 27.2947 3.63321C27.5502 3.95092 27.7392 4.31676 27.8505 4.70898C27.9617 5.1012 27.993 5.51179 27.9424 5.91634C27.8918 6.32088 27.7604 6.71112 27.5559 7.06386C27.3515 7.41659 27.0782 7.72461 26.7523 7.96961C26.4265 8.2146 26.0546 8.39157 25.659 8.48999L3.892 14.418C3.43827 14.5468 2.96088 14.5689 2.49719 14.4826C2.03349 14.3962 1.59608 14.2037 1.21916 13.9201C0.842244 13.6366 0.536055 13.2696 0.324551 12.8481C0.113047 12.4265 0.0019664 11.9617 0 11.49ZM24.506 4.35399L2.738 10.277C2.47528 10.3317 2.24344 10.4848 2.09 10.705C1.9406 10.8887 1.84752 11.1116 1.822 11.347C1.79647 11.5824 1.83959 11.8201 1.94614 12.0315C2.0527 12.2429 2.21814 12.419 2.42252 12.5385C2.62691 12.658 2.8615 12.7158 3.098 12.705C3.22262 12.7159 3.34777 12.6912 3.459 12.634L25.228 6.70899C25.4987 6.64333 25.7389 6.48739 25.909 6.26688C26.0792 6.04637 26.1691 5.77447 26.164 5.49599C26.1599 5.29935 26.1092 5.1065 26.0159 4.93333C25.9226 4.76016 25.7896 4.61163 25.6276 4.5C25.4657 4.38837 25.2796 4.31682 25.0845 4.29126C24.8895 4.2657 24.6912 4.28786 24.506 4.35399Z" fill="#AA27F2"/>
<path d="M0 20.197C0.00628074 19.524 0.234007 18.8717 0.648 18.341C1.06047 17.8029 1.64677 17.4244 2.307 17.27L24.074 11.347C24.4612 11.2277 24.8684 11.1869 25.2716 11.2271C25.6748 11.2673 26.0658 11.3877 26.4219 11.5812C26.7779 11.7747 27.0916 12.0373 27.3447 12.3538C27.5978 12.6702 27.785 13.034 27.8955 13.4239C28.006 13.8137 28.0375 14.2217 27.9881 14.6239C27.9387 15.026 27.8094 15.4143 27.6078 15.7658C27.4063 16.1173 27.1365 16.425 26.8144 16.6707C26.4923 16.9165 26.1243 17.0955 25.732 17.197L3.965 23.123C3.50741 23.2513 3.02659 23.2735 2.55914 23.1878C2.09169 23.1022 1.64995 22.911 1.26757 22.6288C0.88519 22.3466 0.57225 21.9809 0.352588 21.5595C0.132925 21.1381 0.0123345 20.6721 0 20.197ZM24.506 12.989L2.738 18.913C2.47516 18.9674 2.24322 19.1206 2.09 19.341C1.92086 19.5701 1.82092 19.8429 1.802 20.127C1.80003 20.3207 1.8432 20.5122 1.92809 20.6863C2.01298 20.8604 2.13726 21.0123 2.29107 21.13C2.44489 21.2477 2.62401 21.328 2.81423 21.3644C3.00446 21.4009 3.20057 21.3925 3.387 21.34L25.155 15.416C25.3177 15.3766 25.4709 15.305 25.6055 15.2054C25.7401 15.1059 25.8535 14.9805 25.939 14.8365C26.0244 14.6926 26.0803 14.533 26.1031 14.3671C26.126 14.2013 26.1155 14.0326 26.0723 13.8708C26.029 13.7091 25.9538 13.5576 25.8512 13.4254C25.7486 13.2931 25.6205 13.1827 25.4746 13.1006C25.3287 13.0186 25.1678 12.9665 25.0015 12.9475C24.8351 12.9285 24.6667 12.942 24.506 12.989Z" fill="#AA27F2"/>
<path d="M0 28.69C0.00535588 28.026 0.226035 27.3817 0.62888 26.8539C1.03172 26.3261 1.59498 25.9433 2.234 25.763L24 19.841C24.3877 19.7194 24.7959 19.6769 25.2004 19.7157C25.6049 19.7546 25.9975 19.8741 26.355 20.0673C26.7125 20.2605 27.0277 20.5233 27.2819 20.8403C27.5361 21.1573 27.7242 21.522 27.8351 21.913C27.9459 22.3039 27.9774 22.7131 27.9274 23.1164C27.8775 23.5196 27.7473 23.9088 27.5444 24.2609C27.3416 24.613 27.0702 24.9208 26.7464 25.1663C26.4226 25.4117 26.0528 25.5898 25.659 25.69L3.892 31.617C3.43913 31.7319 2.96625 31.7438 2.50817 31.6518C2.05009 31.5599 1.61846 31.3663 1.24505 31.0855C0.871641 30.8047 0.565953 30.4437 0.350484 30.0291C0.135015 29.6146 0.0152487 29.1569 0 28.69ZM24.506 21.481L2.738 27.406C2.47528 27.4607 2.24344 27.6138 2.09 27.834C1.9406 28.0176 1.84752 28.2406 1.822 28.476C1.79647 28.7113 1.83959 28.9491 1.94614 29.1605C2.0527 29.3719 2.21814 29.548 2.42252 29.6675C2.62691 29.787 2.8615 29.8448 3.098 29.834C3.386 29.834 2.017 30.12 25.227 23.834C25.4977 23.7683 25.7379 23.6124 25.908 23.3919C26.0782 23.1714 26.1681 22.8994 26.163 22.621C26.1458 22.4295 26.0866 22.2442 25.9897 22.0782C25.8928 21.9121 25.7605 21.7695 25.6022 21.6604C25.4439 21.5513 25.2636 21.4784 25.0739 21.4468C24.8843 21.4153 24.6901 21.4259 24.505 21.478" fill="#AA27F2"/>
<path d="M24.794 33.971C24.1744 33.9647 23.5705 33.7752 23.0584 33.4263C22.5462 33.0775 22.1487 32.5849 21.916 32.0106C21.6832 31.4363 21.6256 30.806 21.7503 30.199C21.8751 29.5921 22.1766 29.0356 22.617 28.5996C23.0574 28.1637 23.6169 27.8678 24.2251 27.7492C24.8333 27.6306 25.463 27.6946 26.0349 27.9332C26.6068 28.1718 27.0954 28.5742 27.439 29.0899C27.7826 29.6055 27.966 30.2113 27.966 30.831C27.9548 31.6658 27.6159 32.4628 27.0226 33.0501C26.4293 33.6375 25.6289 33.9682 24.794 33.971ZM24.794 29.471C24.5265 29.4738 24.2657 29.5556 24.0445 29.7063C23.8234 29.857 23.6518 30.0697 23.5513 30.3177C23.4508 30.5657 23.4259 30.8379 23.4798 31.1C23.5337 31.3621 23.6639 31.6024 23.8541 31.7907C24.0443 31.9789 24.286 32.1067 24.5486 32.1579C24.8112 32.2091 25.0832 32.1814 25.3301 32.0784C25.5771 31.9754 25.7881 31.8016 25.9364 31.5789C26.0848 31.3562 26.164 31.0946 26.164 30.827C26.1633 30.648 26.1272 30.4709 26.0579 30.3058C25.9886 30.1407 25.8874 29.9909 25.7602 29.865C25.6329 29.739 25.4821 29.6394 25.3163 29.5718C25.1505 29.5042 24.9731 29.47 24.794 29.471Z" fill="#AA27F2"/>
<path d="M3.171 6.27999C2.33629 6.27692 1.53619 5.94609 0.943072 5.35877C0.349949 4.77144 0.0112707 3.97463 0 3.13999C1.25319e-08 2.29899 0.334087 1.49244 0.928764 0.897759C1.52344 0.303081 2.33 -0.0310059 3.171 -0.0310059C4.012 -0.0310059 4.81856 0.303081 5.41324 0.897759C6.00791 1.49244 6.342 2.29899 6.342 3.13999C6.33073 3.97463 5.99205 4.77144 5.39893 5.35877C4.80581 5.94609 4.00571 6.27692 3.171 6.27999ZM3.171 1.85499C2.9918 1.85381 2.81413 1.888 2.64818 1.9556C2.48222 2.0232 2.33123 2.12289 2.20387 2.24896C2.0765 2.37502 1.97527 2.52497 1.90597 2.69023C1.83666 2.85549 1.80065 3.03279 1.8 3.21199C1.79479 3.39267 1.82677 3.57249 1.89396 3.7403C1.96115 3.9081 2.06211 4.0603 2.19058 4.18745C2.31905 4.31461 2.47228 4.414 2.64076 4.47946C2.80924 4.54492 2.98938 4.57506 3.17 4.56799C3.35062 4.57506 3.53076 4.54492 3.69924 4.47946C3.86772 4.414 4.02095 4.31461 4.14942 4.18745C4.27789 4.0603 4.37885 3.9081 4.44604 3.7403C4.51323 3.57249 4.54521 3.39267 4.54 3.21199C4.53921 3.03296 4.50314 2.85585 4.43384 2.69077C4.36454 2.52569 4.26338 2.3759 4.13613 2.24996C4.00889 2.12402 3.85807 2.02439 3.69229 1.95679C3.52651 1.88919 3.34903 1.85494 3.17 1.85599" fill="#AA27F2"/>
</g>
<defs>
<clipPath id="clip0_5_211">
<rect width="27.967" height="33.972" fill="white"/>
</clipPath>
</defs>
</svg>
