<svg width="128" height="128" viewBox="0 0 128 128" fill="none" xmlns="http://www.w3.org/2000/svg">
<circle cx="64" cy="64" r="64" fill="#DEA1FF" fill-opacity="0.3"/>
<circle cx="63.5" cy="63.5" r="53.5" fill="#2E0047" fill-opacity="0.23"/>
<path d="M80.6524 66.0445C79.7982 69.2901 75.7614 71.5835 67.6873 76.1706C59.8822 80.6047 55.9797 82.822 52.8348 81.9307C51.5345 81.5622 50.3498 80.8625 49.3944 79.8985C47.0835 77.5669 47.0835 73.0446 47.0835 64C47.0835 54.9554 47.0835 50.4331 49.3944 48.1015C50.3498 47.1376 51.5345 46.4378 52.8348 46.0693C55.9797 45.1782 59.8822 47.3953 67.6873 51.8295C75.7614 56.4164 79.7982 58.7099 80.6524 61.9555C81.005 63.2953 81.005 64.7047 80.6524 66.0445Z" stroke="white" stroke-width="3" stroke-linejoin="round"/>
</svg>
