<svg width="30" height="30" viewBox="0 0 30 30" fill="none" xmlns="http://www.w3.org/2000/svg">
<g clip-path="url(#clip0_30_239)">
<path d="M22.3598 2.7999C23.9581 3.75848 25.3527 5.02772 26.463 6.53429C27.5733 8.04086 28.3773 9.7549 28.8284 11.5774C29.2796 13.3999 29.369 15.2946 29.0916 17.1523C28.8141 19.0099 28.1753 20.7935 27.2119 22.4001C26.0188 24.3713 24.3741 26.0233 22.4165 27.2167C20.459 28.4102 18.2461 29.1099 15.9647 29.257L25.5565 13.4287H21.3887L11.9688 29.0288C11.0109 28.8108 10.0748 28.5047 9.17201 28.1144L17.1068 15.0284H12.9398L6.14555 26.2289C5.3738 25.6179 4.66596 24.9287 4.03313 24.172L8.65796 16.5104H4.49015L1.92071 20.7996C0.988971 18.7053 0.579865 16.4119 0.729285 14.1206C0.878705 11.8293 1.58209 9.61002 2.77772 7.65752C4.75958 4.41387 7.92268 2.08706 11.5855 1.17844C15.2483 0.26983 19.1176 0.852139 22.3598 2.7999Z" fill="#AA27F2" fill-opacity="0.2"/>
<path d="M15.9645 30C15.8406 29.9966 15.7192 29.9638 15.6101 29.9042C15.5011 29.8447 15.4073 29.7602 15.3364 29.6573C15.2804 29.5417 15.2512 29.4146 15.2512 29.2858C15.2512 29.157 15.2804 29.03 15.3364 28.9143L24.2994 14.1141H21.7886L12.5935 29.3715C12.522 29.501 12.4114 29.604 12.278 29.6656C12.1445 29.7273 11.9951 29.7443 11.8514 29.7142C10.8464 29.5119 9.86963 29.186 8.94295 28.7438C8.84538 28.7055 8.75842 28.6439 8.68946 28.5643C8.62051 28.4847 8.5716 28.3894 8.54692 28.2866C8.51391 28.193 8.50197 28.0931 8.51197 27.9942C8.52197 27.8953 8.55367 27.7999 8.60474 27.7149L15.8552 15.7146H13.3389L6.7735 26.6284C6.66244 26.7902 6.50186 26.9106 6.31648 26.9711C6.21903 26.9967 6.11713 26.9997 6.01838 26.9798C5.91964 26.96 5.82659 26.9179 5.7462 26.8566C4.93592 26.2078 4.19022 25.4805 3.51973 24.6852C3.42816 24.5748 3.37336 24.438 3.36312 24.2942C3.35288 24.1505 3.38773 24.0071 3.4627 23.8846L7.45863 17.3135H4.94702L2.60569 21.1999C2.53237 21.3139 2.43009 21.4058 2.30955 21.4661C2.18902 21.5264 2.05466 21.5528 1.92056 21.5426C1.78933 21.5419 1.66093 21.504 1.54992 21.4332C1.4389 21.3624 1.34972 21.2617 1.29246 21.1423C0.313711 18.9304 -0.119684 16.5116 0.0294437 14.0932C0.178571 11.6748 0.905771 9.32911 2.14867 7.25722C3.52628 5.01056 5.45324 3.16056 7.74377 1.88558C9.97239 0.668929 12.4615 0.0216101 14.9943 2.15993e-05C17.7291 -0.00464266 20.4131 0.746196 22.7564 2.17142C24.4346 3.17649 25.8987 4.50812 27.0642 6.0892C28.2296 7.67028 29.0731 9.46938 29.5459 11.3823C30.0187 13.2952 30.1114 15.284 29.8186 17.2334C29.5257 19.1827 28.8532 21.054 27.8399 22.7388C26.5783 24.8198 24.8416 26.5648 22.7754 27.8275C20.7092 29.0902 18.3737 29.8338 15.9645 29.996M21.3854 12.6857H25.5524C25.6786 12.6756 25.8051 12.7026 25.9165 12.7634C26.0279 12.8242 26.1196 12.9162 26.1805 13.0284C26.2371 13.1439 26.2666 13.271 26.2666 13.3999C26.2666 13.5288 26.2371 13.6559 26.1805 13.7714L17.3356 28.3995C19.2328 28.0623 21.0378 27.3227 22.6318 26.2295C24.2258 25.1362 25.5726 23.7141 26.5837 22.0567C27.5043 20.5334 28.1168 18.8407 28.3856 17.0765C28.6545 15.3122 28.5743 13.5116 28.1497 11.779C27.7251 10.0463 26.9646 8.41604 25.9123 6.98262C24.8599 5.54921 23.5366 4.34116 22.019 3.42846C19.8901 2.16346 17.4669 1.49286 14.9974 1.48525C12.6671 1.46866 10.3726 2.06596 8.34 3.21831C6.30741 4.37067 4.60681 6.03834 3.40567 8.05708C2.39734 9.70571 1.75733 11.557 1.53036 13.4817C1.3034 15.4063 1.49495 17.3579 2.09165 19.1999L3.91892 16.1734C3.97985 16.0612 4.07154 15.9692 4.18296 15.9084C4.29439 15.8476 4.4208 15.8206 4.54703 15.8307H8.71246C8.83857 15.8207 8.96486 15.8477 9.07614 15.9085C9.18743 15.9693 9.27897 16.0613 9.33977 16.1734C9.39615 16.2889 9.42547 16.4161 9.42547 16.5449C9.42547 16.6737 9.39615 16.8009 9.33977 16.9164L5.00404 24.1144L6.03372 25.1432L12.428 14.5745C12.4889 14.4623 12.5806 14.3702 12.692 14.3095C12.8035 14.2487 12.9299 14.2217 13.0561 14.2318H17.2239C17.35 14.2218 17.4763 14.2488 17.5876 14.3096C17.6989 14.3703 17.7904 14.4623 17.8512 14.5745C17.9076 14.69 17.9369 14.8171 17.9369 14.946C17.9369 15.0748 17.9076 15.2019 17.8512 15.3175L10.2562 27.771C10.7201 27.9574 11.1965 28.1102 11.6819 28.2282L20.8175 13.086C20.8688 12.974 20.9488 12.8778 21.0492 12.8075C21.1496 12.7371 21.2668 12.6951 21.3886 12.6857" fill="#AA27F2"/>
</g>
<defs>
<clipPath id="clip0_30_239">
<rect width="30" height="30" fill="white"/>
</clipPath>
</defs>
</svg>
