<svg width="30" height="31" viewBox="0 0 30 31" fill="none" xmlns="http://www.w3.org/2000/svg">
<g clip-path="url(#clip0_30_221)">
<path d="M22.8753 1.44182C21.4012 1.57067 19.9706 2.00295 18.6754 2.71091C17.3801 3.41887 16.2489 4.38687 15.3542 5.55277C15.0901 5.87898 8.49367 14.3614 8.22949 14.6876L14.2335 20.626C14.8275 20.2349 23.7991 14.5577 23.7991 14.5577C25.1765 13.6909 26.3335 12.5219 27.1804 11.1413C28.0273 9.7608 28.5412 8.20586 28.6823 6.59713L29.2099 0.855103L22.8753 1.44182Z" fill="white"/>
<path d="M24.0624 5.68261C24.5063 6.12119 24.8087 6.68016 24.9314 7.28878C25.0541 7.89741 24.9915 8.52834 24.7515 9.10177C24.5115 9.67519 24.105 10.1653 23.5834 10.5102C23.0617 10.8551 22.4483 11.0391 21.8209 11.0391C21.1934 11.0391 20.5801 10.8551 20.0584 10.5102C19.5367 10.1653 19.1302 9.67519 18.8903 9.10177C18.6503 8.52834 18.5877 7.89741 18.7104 7.28878C18.833 6.68016 19.1355 6.12119 19.5794 5.68261C19.8721 5.38863 20.2211 5.15517 20.6059 4.99581C20.9907 4.83646 21.4037 4.75439 21.8209 4.75439C22.2381 4.75439 22.6511 4.83646 23.0359 4.99581C23.4207 5.15517 23.7696 5.38863 24.0624 5.68261Z" fill="#AA27F2" fill-opacity="0.2"/>
<path d="M19.7083 19.2554C20.1247 19.9224 20.3053 20.7073 20.2217 21.4868C20.138 22.2663 19.795 22.9963 19.2464 23.562L15.4839 19.8406C16.0779 19.4494 16.8696 18.9269 17.7926 18.4051C17.8583 18.3401 17.9247 18.3401 17.9896 18.2744C18.16 18.157 18.3364 18.0481 18.5179 17.9482C18.5836 17.8833 18.6492 17.8833 18.7156 17.8176L19.7083 19.2554Z" fill="#AA27F2" fill-opacity="0.2"/>
<path d="M9.28525 15.6663L13.2431 19.5808C10.3404 22.2563 7.30553 23.5612 6.24963 22.5168C5.26017 21.5381 6.57945 18.5373 9.28525 15.6663Z" fill="#AA27F2" fill-opacity="0.2"/>
<path d="M11.462 10.511L11.3956 10.6416C11.2643 10.7723 11.1986 10.9029 11.0657 11.0328L10.9345 11.2283C10.2748 12.1421 9.61518 12.9251 9.08683 13.5776L5.45801 9.98919C6.01444 9.41992 6.75551 9.06225 7.5516 8.97873C8.34769 8.89522 9.14812 9.09117 9.81291 9.53233L11.462 10.511Z" fill="#AA27F2" fill-opacity="0.2"/>
<path d="M21.8186 11.8823C21.0253 11.8789 20.2507 11.6436 19.5922 11.2061C18.9337 10.7685 18.4206 10.1482 18.1175 9.42314C17.8143 8.69806 17.7346 7.90053 17.8883 7.13077C18.042 6.36101 18.4223 5.65336 18.9815 5.09674C19.7376 4.35643 20.7547 3.93519 21.8186 3.92173C22.3469 3.9195 22.8702 4.02229 23.3576 4.224C23.845 4.42572 24.2864 4.72223 24.6556 5.09595C25.4038 5.844 25.8294 6.84992 25.8428 7.90203C25.8451 8.42457 25.7412 8.94223 25.5372 9.42427C25.3333 9.90631 25.0335 10.3429 24.6556 10.7081C24.2848 11.0798 23.8431 11.375 23.3561 11.5765C22.8691 11.7781 22.3465 11.882 21.8186 11.8823ZM21.8186 5.55281C21.206 5.56011 20.6181 5.79269 20.1695 6.20524C19.8399 6.52477 19.6146 6.93463 19.5228 7.38197C19.431 7.82931 19.4767 8.2936 19.6542 8.71497C19.8317 9.13633 20.1327 9.49545 20.5185 9.74599C20.9043 9.99654 21.3571 10.127 21.8186 10.1206C22.4311 10.1132 23.0189 9.88061 23.4677 9.46819C23.6818 9.25337 23.8504 8.99846 23.9636 8.71839C24.0769 8.43832 24.1325 8.13871 24.1273 7.83711C24.1198 7.23127 23.8846 6.64988 23.4677 6.20603C23.0259 5.78272 22.4336 5.54811 21.8186 5.55281Z" fill="#AA27F2"/>
<path d="M17.7294 19.1897C17.5858 19.1856 17.4452 19.148 17.3191 19.0801C17.1929 19.0121 17.0847 18.9157 17.0033 18.7986C16.9411 18.7105 16.8984 18.6103 16.878 18.5048C16.8576 18.3992 16.8599 18.2905 16.8849 18.1859C16.9098 18.0813 16.9568 17.9831 17.0227 17.8976C17.0886 17.8122 17.1721 17.7415 17.2675 17.6901L17.4652 17.5594C17.5562 17.5038 17.6574 17.4665 17.763 17.4495C17.8686 17.4325 17.9765 17.4363 18.0806 17.4606C18.1847 17.4849 18.283 17.5293 18.3698 17.5911C18.4565 17.653 18.5302 17.7311 18.5864 17.8211C18.6426 17.9111 18.6804 18.0112 18.6976 18.1156C18.7147 18.2201 18.7109 18.3268 18.6863 18.4298C18.6617 18.5327 18.6169 18.6299 18.5544 18.7158C18.4918 18.8016 18.4128 18.8744 18.3218 18.93L18.1249 19.0607C18.0093 19.1425 17.8715 19.188 17.7294 19.1913" fill="#1E81CE"/>
<path d="M18.5212 18.7328C18.3776 18.7288 18.2369 18.6912 18.1108 18.6232C17.9846 18.5553 17.8764 18.4588 17.7951 18.3417C17.7329 18.2535 17.6902 18.1534 17.6698 18.0478C17.6493 17.9423 17.6517 17.8336 17.6766 17.729C17.7015 17.6244 17.7485 17.5262 17.8144 17.4407C17.8804 17.3553 17.9638 17.2846 18.0593 17.2332L18.257 17.1025C18.4408 16.9902 18.6621 16.9546 18.8724 17.0037C19.0826 17.0528 19.2646 17.1825 19.3781 17.3642C19.4917 17.546 19.5277 17.7649 19.478 17.9729C19.4284 18.1808 19.2973 18.3608 19.1136 18.4731L18.9166 18.6038C18.7963 18.6759 18.6612 18.7206 18.5212 18.7344" fill="#1E81CE"/>
<path d="M19.2473 24.3427C19.1353 24.3423 19.0247 24.3189 18.9224 24.2739C18.8202 24.2289 18.7285 24.1633 18.6533 24.0814L14.8908 20.4273C14.7401 20.2702 14.6574 20.0612 14.6602 19.8447C14.6631 19.6282 14.7513 19.4214 14.9061 19.2683C15.0609 19.1152 15.27 19.0279 15.4889 19.0251C15.7078 19.0222 15.9191 19.104 16.0779 19.2531L19.1784 22.3197C19.4009 21.9029 19.506 21.4347 19.4827 20.964C19.4595 20.4934 19.3088 20.0375 19.0463 19.6442L18.0569 18.1398C17.9437 17.9572 17.9085 17.7377 17.959 17.5294C18.0095 17.3211 18.1416 17.1413 18.3262 17.0293C18.5108 16.9174 18.7329 16.8826 18.9434 16.9326C19.154 16.9825 19.3358 17.1132 19.449 17.2958L20.4385 18.8002C20.978 19.623 21.2136 20.605 21.1054 21.5799C20.9971 22.5548 20.5517 23.4628 19.8445 24.1503C19.6708 24.2729 19.4638 24.341 19.2505 24.3458" fill="#AA27F2"/>
<path d="M11.0008 12.0122C10.8081 12.0059 10.6227 11.9372 10.4733 11.8166C10.3097 11.6708 10.2059 11.4707 10.1815 11.2543C10.1572 11.0379 10.214 10.8201 10.3412 10.6424L10.4733 10.4468C10.6133 10.2738 10.8171 10.1628 11.0398 10.1384C11.2625 10.114 11.4859 10.178 11.6609 10.3165C11.8358 10.455 11.948 10.6566 11.9727 10.8769C11.9974 11.0972 11.9326 11.3181 11.7925 11.4912L11.6605 11.6867C11.4877 11.8708 11.2534 11.9859 11.0008 12.0122Z" fill="#1E81CE"/>
<path d="M9.15319 14.3614C9.04121 14.3613 8.93048 14.3381 8.82816 14.2931C8.72585 14.248 8.63422 14.1823 8.55919 14.1001L4.93117 10.5117C4.85287 10.4348 4.79073 10.3433 4.74832 10.2426C4.70591 10.1418 4.68408 10.0337 4.68408 9.9246C4.68408 9.81546 4.70591 9.7074 4.74832 9.60663C4.79073 9.50587 4.85287 9.4144 4.93117 9.3375C5.62622 8.63798 6.54425 8.19743 7.52993 8.09037C8.51561 7.98332 9.50842 8.21633 10.3404 8.74999L11.9238 9.79436C12.0913 9.90479 12.2111 10.073 12.2599 10.2661C12.3088 10.4591 12.2831 10.6633 12.188 10.8387L12.1224 10.9036C12.0245 11.101 11.8524 11.2525 11.6428 11.3257C11.4332 11.3988 11.203 11.3877 11.0016 11.2948C10.8314 11.2419 10.6893 11.1247 10.6062 10.9686L9.41816 10.1855C9.02608 9.94157 8.57717 9.80144 8.11455 9.77856C7.65193 9.75568 7.19113 9.85083 6.7764 10.0549L9.74478 12.9908C9.82308 13.0677 9.88522 13.1592 9.92763 13.2599C9.97004 13.3607 9.99187 13.4688 9.99187 13.5779C9.99187 13.687 9.97004 13.7951 9.92763 13.8959C9.88522 13.9966 9.82308 14.0881 9.74478 14.165C9.57141 14.2877 9.36469 14.3558 9.15159 14.3606" fill="#AA27F2"/>
<path d="M7.30556 23.7567C7.01472 23.7742 6.72341 23.7309 6.4506 23.6297C6.17778 23.5285 5.92957 23.3716 5.72211 23.1692C5.19456 22.6474 4.73265 21.6031 5.65646 19.5151C6.4054 17.8957 7.43218 16.4167 8.69129 15.1437C8.83991 14.9793 9.04848 14.88 9.27112 14.8676C9.49376 14.8553 9.71224 14.931 9.87848 15.078C10.0447 15.225 10.1451 15.4313 10.1576 15.6515C10.17 15.8717 10.0935 16.0878 9.94492 16.2522C7.17348 19.1897 6.51383 21.6047 6.9101 21.995C7.30636 22.3854 9.74719 21.7337 12.7156 18.9933C12.7979 18.9206 12.8939 18.8645 12.9981 18.8284C13.1023 18.7923 13.2127 18.7769 13.3229 18.783C13.4332 18.7891 13.5411 18.8166 13.6406 18.864C13.7401 18.9114 13.8292 18.9776 13.9028 19.0591C13.9764 19.1405 14.033 19.2354 14.0695 19.3385C14.106 19.4416 14.1216 19.5507 14.1154 19.6598C14.1092 19.7688 14.0814 19.8756 14.0335 19.974C13.9856 20.0724 13.9186 20.1605 13.8363 20.2333C12.5492 21.4786 11.0539 22.4941 9.41657 23.2349C8.74547 23.5181 8.03242 23.6942 7.30556 23.7567Z" fill="#AA27F2"/>
<path d="M13.6395 21.147L7.6355 15.2086C7.498 15.0722 7.41548 14.8909 7.4034 14.6987C7.39132 14.5064 7.4505 14.3164 7.56986 14.1642C7.83403 13.838 14.1671 5.68183 14.6946 5.0294C15.673 3.78516 16.8967 2.75043 18.2915 1.98797C19.6863 1.22551 21.2231 0.751203 22.8088 0.593817L29.0802 0.00552009C29.2038 -0.00293275 29.3278 0.0149337 29.4438 0.0579138C29.5598 0.100894 29.6651 0.167987 29.7527 0.254667C29.8403 0.341346 29.908 0.445594 29.9514 0.560376C29.9947 0.675157 30.0127 0.797802 30.004 0.920033L29.4725 6.59635C29.3303 8.33117 28.7862 10.0103 27.8825 11.5038C26.9788 12.9973 25.7396 14.2649 24.261 15.2086C24.261 15.2086 14.9588 21.0813 14.6946 21.2768C14.5318 21.3834 14.3359 21.4287 14.1422 21.4048C13.9485 21.3808 13.7699 21.2891 13.6387 21.1462M9.35024 14.6211L14.364 19.58C23.2699 13.9037 23.1378 13.9687 23.3356 13.838C24.6079 13.0353 25.6748 11.9518 26.4527 10.6727C27.2305 9.39359 27.698 7.95358 27.8186 6.4657L28.2805 1.76724L23.0025 2.2249C21.6459 2.3465 20.3295 2.74565 19.1371 3.39704C17.9446 4.04843 16.9021 4.93784 16.0755 6.00884C15.548 6.59635 10.2044 13.5126 9.34624 14.6219" fill="#AA27F2"/>
<path d="M0.840529 27.5414C0.728685 27.5413 0.618113 27.518 0.515942 27.473C0.413772 27.428 0.322269 27.3623 0.247334 27.2801C0.169033 27.2032 0.10689 27.1118 0.0644829 27.011C0.0220762 26.9102 0.000244141 26.8022 0.000244141 26.693C0.000244141 26.5839 0.0220762 26.4758 0.0644829 26.3751C0.10689 26.2743 0.169033 26.1828 0.247334 26.1059L3.14927 23.2349C3.3069 23.08 3.52016 22.9933 3.74235 22.9936C3.96453 22.9939 4.17753 23.0813 4.33469 23.2367C4.49185 23.392 4.58037 23.6026 4.58085 23.8224C4.58133 24.0421 4.49374 24.2531 4.33726 24.4091L1.43453 27.2801C1.3634 27.367 1.2725 27.4359 1.16925 27.4814C1.06601 27.5268 0.953363 27.5474 0.840529 27.5414Z" fill="#AA27F2"/>
<path d="M0.840529 31C0.728685 30.9998 0.618113 30.9765 0.515942 30.9315C0.413772 30.8865 0.322269 30.8208 0.247334 30.7387C0.169033 30.6618 0.10689 30.5703 0.0644829 30.4696C0.0220762 30.3688 0.000244141 30.2607 0.000244141 30.1516C0.000244141 30.0425 0.0220762 29.9344 0.0644829 29.8336C0.10689 29.7329 0.169033 29.6414 0.247334 29.5645L4.93046 24.9318C5.08925 24.7827 5.30061 24.7009 5.51949 24.7037C5.73838 24.7066 5.94749 24.7938 6.10228 24.9469C6.25707 25.1 6.3453 25.3069 6.34817 25.5234C6.35104 25.7399 6.26832 25.9489 6.11765 26.106L1.43453 30.7387C1.3634 30.8255 1.2725 30.8945 1.16925 30.9399C1.06601 30.9853 0.953363 31.0059 0.840529 31Z" fill="#AA27F2"/>
</g>
<defs>
<clipPath id="clip0_30_221">
<rect width="30" height="31" fill="white"/>
</clipPath>
</defs>
</svg>
