<svg width="35" height="26" viewBox="0 0 35 26" fill="none" xmlns="http://www.w3.org/2000/svg">
<g clip-path="url(#clip0_30_243)">
<rect width="35" height="26" fill="white"/>
<path d="M34.1352 10.8986V20.9659L15.0381 25.1251V15.0593L23.3558 13.2471L34.1352 10.8986Z" fill="#AA27F2" fill-opacity="0.2"/>
<path d="M34.1346 10.8986L23.356 13.2479V4.9928L34.1346 10.8986Z" fill="#AA27F2" fill-opacity="0.2"/>
<path d="M20.029 0.831177V10.8985L11.7081 12.7083L0.865234 15.0577V4.99195L20.029 0.831177Z" fill="white"/>
<path d="M11.7081 12.7108V20.9659L0.865234 15.0602L11.7081 12.7108Z" fill="white"/>
<path d="M23.3565 14.1196C23.1286 14.115 22.9112 14.0218 22.7499 13.8593C22.5885 13.6969 22.4957 13.4778 22.4907 13.2479V4.99274C22.4951 4.84647 22.5338 4.70332 22.6036 4.57504C22.6734 4.44675 22.7723 4.33698 22.8923 4.25472C23.0152 4.18863 23.1523 4.15405 23.2915 4.15405C23.4307 4.15405 23.5678 4.18863 23.6907 4.25472L34.4693 10.1605C34.6612 10.2684 34.8032 10.4483 34.8643 10.6612C34.9254 10.8741 34.9007 11.1027 34.7956 11.2973C34.6905 11.4919 34.5135 11.6368 34.303 11.7005C34.0926 11.7642 33.8657 11.7415 33.6717 11.6373L24.0882 6.40154V13.2471C24.1007 13.3535 24.0913 13.4614 24.0607 13.564C24.0301 13.6666 23.9789 13.7618 23.9103 13.8436C23.8417 13.9254 23.7571 13.9922 23.6618 14.0396C23.5666 14.0871 23.4627 14.1143 23.3565 14.1196Z" fill="#AA27F2"/>
<path d="M15.0389 25.9993C14.8418 26.0048 14.6505 25.9324 14.5056 25.7976C14.4016 25.7201 14.3173 25.619 14.2595 25.5024C14.2017 25.3858 14.1721 25.2571 14.1731 25.1268V15.0602C14.1687 14.8676 14.2337 14.6799 14.3559 14.5319C14.4782 14.3838 14.6495 14.2855 14.8381 14.255L34.0019 10.027C34.1152 9.99322 34.235 9.98784 34.3509 10.0113C34.4667 10.0347 34.5752 10.0862 34.6669 10.1614C34.7708 10.2389 34.8552 10.34 34.9129 10.4566C34.9707 10.5732 35.0004 10.7019 34.9994 10.8322V20.8988C35.0036 21.0914 34.9386 21.279 34.8163 21.427C34.6941 21.575 34.5229 21.6734 34.3344 21.704L15.1706 25.9321C15.1363 25.9704 15.0898 25.9944 15.0389 25.9993ZM15.8356 15.731V24.0534L33.3368 20.228V11.9056L15.8356 15.731Z" fill="#AA27F2"/>
<path d="M11.7112 21.7712C11.5739 21.782 11.4361 21.759 11.3096 21.704L0.46673 15.7982C0.276414 15.6878 0.13564 15.5076 0.0737053 15.2952C0.0117701 15.0827 0.0334434 14.8543 0.134215 14.6576C0.242883 14.4648 0.421236 14.3218 0.63199 14.2585C0.842743 14.1953 1.06958 14.2166 1.26509 14.3181L10.8462 19.5531V12.7076C10.8462 12.4761 10.9374 12.2541 11.0996 12.0904C11.2619 11.9267 11.4821 11.8347 11.7116 11.8347C11.9411 11.8347 12.1612 11.9267 12.3235 12.0904C12.4858 12.2541 12.577 12.4761 12.577 12.7076V20.9627C12.5727 21.109 12.534 21.2522 12.4642 21.3805C12.3944 21.5087 12.2954 21.6185 12.1754 21.7008C12.0258 21.7515 11.8682 21.7743 11.7104 21.768" fill="#AA27F2"/>
<path d="M0.86521 15.9325C0.668452 15.9377 0.477436 15.8654 0.332704 15.7308C0.228853 15.6533 0.144612 15.5521 0.086832 15.4356C0.0290523 15.319 -0.000633427 15.1904 0.000189601 15.0601V4.99269C-0.00398947 4.80011 0.0610368 4.6125 0.183267 4.4645C0.305497 4.3165 0.476679 4.21808 0.665219 4.18743L19.829 0.0258395C19.9424 -0.00810203 20.0624 -0.0134423 20.1783 0.0102874C20.2943 0.0340172 20.4027 0.0860915 20.494 0.16194C20.5981 0.239236 20.6825 0.340346 20.7403 0.456956C20.7981 0.573567 20.8277 0.70235 20.8265 0.832719V10.8985C20.8311 11.0911 20.7662 11.2789 20.6439 11.427C20.5216 11.5751 20.3502 11.6734 20.1615 11.7037L0.998537 15.9325H0.86521ZM1.73103 5.66347V13.9858L19.16 10.2277V1.83808L1.73103 5.66347Z" fill="#AA27F2"/>
</g>
<defs>
<clipPath id="clip0_30_243">
<rect width="35" height="26" fill="white"/>
</clipPath>
</defs>
</svg>
