<svg width="43" height="37" viewBox="0 0 43 37" fill="none" xmlns="http://www.w3.org/2000/svg">
<g clip-path="url(#clip0_30_258)" filter="url(#filter0_d_30_258)">
<path d="M37.833 11.4054L21.3689 21.8973L4.8396 11.4054L21.3689 0.848022L37.833 11.4054Z" fill="#AA27F2" fill-opacity="0.2"/>
<path d="M21.3689 22.73C21.2113 22.7174 21.0577 22.6739 20.9172 22.6022L4.38399 12.0448C4.2588 11.9768 4.15602 11.8745 4.0879 11.7502C4.01979 11.6259 3.98923 11.4847 3.99987 11.3437C4.00371 11.2048 4.04048 11.0687 4.10721 10.9465C4.17394 10.8243 4.26875 10.7194 4.38399 10.6402L20.9172 0.143788C21.0489 0.0502066 21.2068 -0.00012207 21.3689 -0.00012207C21.5309 -0.00012207 21.6889 0.0502066 21.8206 0.143788L38.3499 10.6372C38.4757 10.7051 38.5789 10.8077 38.6471 10.9326C38.7152 11.0574 38.7455 11.1991 38.7341 11.3406C38.7304 11.4796 38.6936 11.6158 38.6269 11.7382C38.5602 11.8605 38.4653 11.9656 38.3499 12.0448L21.7561 22.6014C21.6392 22.6717 21.508 22.7154 21.372 22.7293M6.32455 11.4053L21.3689 21.0027L36.4125 11.4053L21.3689 1.80793L6.32455 11.4053Z" fill="#AA27F2"/>
<path d="M21.3681 28.9999C21.2106 28.9869 21.0571 28.9435 20.9164 28.872L4.38401 18.3146C4.26611 18.2542 4.16763 18.1623 4.09974 18.0493C4.03186 17.9363 3.99727 17.8067 3.9999 17.6752V11.4053C4.00364 11.1859 4.09321 10.9766 4.24971 10.8213C4.40621 10.6661 4.61742 10.5772 4.83881 10.5732C5.06033 10.577 5.27173 10.6658 5.4284 10.8211C5.58506 10.9763 5.67473 11.1858 5.67849 11.4053V17.2275L21.3689 27.2764L37.7677 16.971C37.9475 16.8607 38.1641 16.8256 38.37 16.8736C38.5759 16.9216 38.7541 17.0486 38.8655 17.2268C38.9768 17.405 39.0122 17.6197 38.9638 17.8237C38.9154 18.0277 38.7871 18.2043 38.6073 18.3146L21.7553 28.872C21.7048 28.92 21.6441 28.9564 21.5777 28.9785C21.5113 29.0006 21.4408 29.0079 21.3712 28.9999" fill="#AA27F2"/>
<path d="M37.5741 21.3241H37.3805C37.2744 21.3033 37.1735 21.2619 37.0836 21.2023C36.9937 21.1427 36.9166 21.0662 36.8566 20.977C36.7966 20.8878 36.755 20.7877 36.7342 20.6825C36.7134 20.5774 36.7137 20.4692 36.7352 20.3641L37.1869 18.1884L34.9913 17.5489C34.8856 17.5277 34.7854 17.4855 34.6965 17.4249C34.6077 17.3643 34.5322 17.2865 34.4746 17.1962C34.4169 17.1059 34.3783 17.005 34.3611 16.8995C34.3439 16.794 34.3484 16.6861 34.3743 16.5824C34.4002 16.4787 34.4471 16.3813 34.5121 16.296C34.577 16.2107 34.6587 16.1393 34.7523 16.0861C34.8458 16.033 34.9493 15.9991 35.0564 15.9866C35.1634 15.9741 35.272 15.9833 35.3754 16.0134L38.2809 16.8455C38.477 16.9111 38.6431 17.0437 38.7496 17.2196C38.856 17.3955 38.8957 17.6032 38.8617 17.8055L38.2164 20.6846C38.2809 21.0652 37.9582 21.3241 37.571 21.3241" fill="#AA27F2"/>
</g>
<defs>
<filter id="filter0_d_30_258" x="0" y="0" width="43" height="37" filterUnits="userSpaceOnUse" color-interpolation-filters="sRGB">
<feFlood flood-opacity="0" result="BackgroundImageFix"/>
<feColorMatrix in="SourceAlpha" type="matrix" values="0 0 0 0 0 0 0 0 0 0 0 0 0 0 0 0 0 0 127 0" result="hardAlpha"/>
<feOffset dy="4"/>
<feGaussianBlur stdDeviation="2"/>
<feComposite in2="hardAlpha" operator="out"/>
<feColorMatrix type="matrix" values="0 0 0 0 0 0 0 0 0 0 0 0 0 0 0 0 0 0 0.25 0"/>
<feBlend mode="normal" in2="BackgroundImageFix" result="effect1_dropShadow_30_258"/>
<feBlend mode="normal" in="SourceGraphic" in2="effect1_dropShadow_30_258" result="shape"/>
</filter>
<clipPath id="clip0_30_258">
<rect width="35" height="29" fill="white" transform="translate(4)"/>
</clipPath>
</defs>
</svg>
