<svg width="35" height="30" viewBox="0 0 35 30" fill="none" xmlns="http://www.w3.org/2000/svg">
<g clip-path="url(#clip0_30_253)">
<path d="M25.8465 0.78833L34.1939 14.9804L25.8465 29.1725H9.09058L17.3716 14.9804L9.09058 0.78833H25.8465Z" fill="#AA27F2" fill-opacity="0.2"/>
<path d="M9.08977 30C8.95296 29.9868 8.82081 29.9436 8.70292 29.8734C8.51834 29.7699 8.38146 29.5993 8.32116 29.3974C8.26087 29.1956 8.28189 28.9784 8.37979 28.7917L16.4005 14.9813L8.37799 1.16995C8.28052 0.983109 8.25992 0.76595 8.32054 0.564301C8.38116 0.362653 8.51827 0.19229 8.70292 0.0891625C8.89245 -0.00729875 9.11194 -0.0280608 9.31639 0.0311342C9.52084 0.0903292 9.69475 0.224995 9.80244 0.407515L18.0826 14.5987C18.1464 14.7159 18.1798 14.8471 18.1798 14.9804C18.1798 15.1136 18.1464 15.2448 18.0826 15.362L9.80155 29.5541C9.73666 29.6871 9.63559 29.7993 9.50979 29.8781C9.38399 29.9569 9.23849 29.9991 9.08977 30Z" fill="#AA27F2"/>
<path d="M25.8448 30H9.08885C8.94701 30.0035 8.80672 29.9701 8.68187 29.9032C8.55702 29.8362 8.45195 29.738 8.37707 29.6183L0.0969478 15.362C0.0331581 15.2448 -0.000244141 15.1136 -0.000244141 14.9803C-0.000244141 14.8471 0.0331581 14.7159 0.0969478 14.5987L8.37797 0.405698C8.44701 0.280738 8.55091 0.178247 8.67718 0.110541C8.80345 0.042835 8.94671 0.0127953 9.08974 0.0240319H25.8448C25.9866 0.0205159 26.1269 0.0538849 26.2517 0.120831C26.3766 0.187778 26.4816 0.285978 26.5565 0.405698L34.904 14.5978C34.9679 14.7265 35.0011 14.868 35.0011 15.0115C35.0011 15.155 34.9679 15.2966 34.904 15.4253L26.5565 29.5541C26.4786 29.6762 26.3743 29.7796 26.2512 29.8567C26.1281 29.9338 25.9893 29.9827 25.8448 30ZM9.54212 28.4091H25.3286L33.221 14.9803L25.3933 1.55159H9.54212L1.779 14.9803L9.54212 28.4091Z" fill="#AA27F2"/>
</g>
<defs>
<clipPath id="clip0_30_253">
<rect width="35" height="30" fill="white"/>
</clipPath>
</defs>
</svg>
